<svg width="48" height="48" viewBox="0 0 48 48" fill="none" xmlns="http://www.w3.org/2000/svg">
<circle opacity="0.5" r="24" transform="matrix(0 -1 -1 0 24 24)" fill="black"/>
<path d="M30.121 17.8793C28.5502 16.3085 26.3943 15.3335 24.0002 15.3335C21.7016 15.3335 19.4972 16.2466 17.8719 17.8719C16.2466 19.4972 15.3335 21.7016 15.3335 24.0002C15.3335 26.2987 16.2466 28.5031 17.8719 30.1284C19.4972 31.7537 21.7016 32.6668 24.0002 32.6668C28.041 32.6668 31.4102 29.9043 32.3743 26.1668H30.121C29.2327 28.691 26.8277 30.5002 24.0002 30.5002C22.2763 30.5002 20.623 29.8153 19.404 28.5964C18.185 27.3774 17.5002 25.7241 17.5002 24.0002C17.5002 22.2763 18.185 20.623 19.404 19.404C20.623 18.185 22.2763 17.5002 24.0002 17.5002C25.7985 17.5002 27.4018 18.2477 28.5718 19.4285L25.0835 22.9168H32.6668V15.3335L30.121 17.8793Z" fill="white"/>
</svg>
